<svg class="svg-icon" style="width: 1em; height: 1em;vertical-align: middle;fill: currentColor;overflow: hidden;" viewBox="0 0 1024 1024" version="1.1" xmlns="http://www.w3.org/2000/svg"><path d="M786.55 402.55H432.9c21.05 32.3 32.45 70.15 32.45 109.45s-11.4 77.15-32.45 109.45h353.65c30.1 0 57.45-12.3 77.3-32.15 19.85-19.85 32.15-47.2 32.15-77.3 0-30.1-12.3-57.5-32.15-77.3-19.8-19.85-47.15-32.15-77.3-32.15z" fill="#90A4AE" /><path d="M382.65 496h452c8.85 0 16 7.15 16 16s-7.15 16-16 16h-452c-8.85 0-16-7.15-16-16s7.2-16 16-16z" fill="#546E7A" /><path d="M312.65 327.35c-51 0-97.15 20.65-130.6 54.1C148.65 414.85 128 461 128 512s20.65 97.15 54.1 130.6c33.4 33.4 79.6 54.1 130.6 54.1s97.15-20.65 130.6-54.1c33.4-33.4 54.1-79.6 54.1-130.6s-20.65-97.15-54.1-130.6C409.85 348 363.65 327.35 312.65 327.35z" fill="#DE514F" /></svg>