<svg class="svg-icon" style="width: 1em; height: 1em;vertical-align: middle;fill: currentColor;overflow: hidden;" viewBox="0 0 1024 1024" version="1.1" xmlns="http://www.w3.org/2000/svg"><path d="M237.45 402.55h353.65c-21.05 32.3-32.45 70.15-32.45 109.45s11.4 77.15 32.45 109.45H237.45c-30.1 0-57.5-12.3-77.3-32.15-19.85-19.8-32.15-47.2-32.15-77.3 0-30.1 12.3-57.5 32.15-77.3 19.8-19.85 47.2-32.15 77.3-32.15z" fill="#90A4AE" /><path d="M641.35 496h-452c-8.85 0-16 7.15-16 16s7.15 16 16 16h452c8.85 0 16-7.15 16-16s-7.2-16-16-16z" fill="#546E7A" /><path d="M711.35 327.35c51 0 97.15 20.65 130.6 54.1C875.35 414.85 896 461 896 512s-20.65 97.15-54.1 130.6c-33.4 33.4-79.6 54.1-130.6 54.1s-97.15-20.65-130.6-54.1c-33.4-33.4-54.1-79.6-54.1-130.6s20.65-97.15 54.1-130.6c33.5-33.4 79.65-54.05 130.65-54.05z" fill="#43A047" /></svg>